<svg xmlns="http://www.w3.org/2000/svg" width="198.5" height="148.875" viewBox="0 0 198.5 148.875">
  <path id="Icon_awesome-image" data-name="Icon awesome-image" d="M179.891,153.375H18.609A18.609,18.609,0,0,1,0,134.766V23.109A18.609,18.609,0,0,1,18.609,4.5H179.891A18.609,18.609,0,0,1,198.5,23.109V134.766A18.609,18.609,0,0,1,179.891,153.375ZM43.422,26.211A21.711,21.711,0,1,0,65.133,47.922,21.711,21.711,0,0,0,43.422,26.211ZM24.812,128.562H173.688V85.141L139.758,51.211a4.653,4.653,0,0,0-6.58,0L80.641,103.75,59.118,82.227a4.653,4.653,0,0,0-6.58,0L24.812,109.953Z" transform="translate(0 -4.5)" fill="#ffe640"/>
</svg>
